<?xml version="1.0" encoding="utf-8"?>
<!-- Generator: Adobe Illustrator 16.0.0, SVG Export Plug-In . SVG Version: 6.00 Build 0)  -->
<!DOCTYPE svg PUBLIC "-//W3C//DTD SVG 1.1//EN" "http://www.w3.org/Graphics/SVG/1.1/DTD/svg11.dtd">
<svg version="1.1" id="Calque_1" xmlns="http://www.w3.org/2000/svg" xmlns:xlink="http://www.w3.org/1999/xlink" x="0px" y="0px"
	 width="283.46px" height="141.73px" viewBox="0 0 283.46 141.73" enable-background="new 0 0 283.46 141.73" xml:space="preserve">
<path d="M141.24,79l-8.015-35.56c-2.414-10.708-13.09-17.456-23.798-15.042l-35.56,8.015C63.159,38.826,56.411,49.502,58.825,60.21
	l2.632,11.676L38.64,77.028l-4.922-21.835l-12.207,2.751l4.921,21.837L6.404,84.295l2.751,12.207l20.03-4.516l4.921,21.836
	l12.207-2.75l-4.921-21.836l22.816-5.143L66.84,95.77c2.414,10.709,13.089,17.457,23.797,15.043l35.561-8.016
	C136.905,100.385,143.654,89.709,141.24,79z M87.887,98.605c-3.978,0.896-7.944-1.609-8.84-5.586l-8.015-35.561
	c-0.896-3.977,1.609-7.942,5.588-8.839l35.56-8.015c3.977-0.897,7.942,1.61,8.838,5.587l8.015,35.561
	c0.898,3.977-1.609,7.941-5.586,8.838L87.887,98.605z"/>
<text transform="matrix(1 0 0 1 91.6621 94.0215)" stroke="#FFFFFF" font-family="'NirmalaUI-Bold'" font-size="62.5655" letter-spacing="-1">LOGIN</text>
</svg>
